<?xml version="1.0" encoding="UTF-8" standalone="no"?>
<svg
   xmlns:dc="http://purl.org/dc/elements/1.1/"
   xmlns:cc="http://creativecommons.org/ns#"
   xmlns:rdf="http://www.w3.org/1999/02/22-rdf-syntax-ns#"
   xmlns:svg="http://www.w3.org/2000/svg"
   xmlns="http://www.w3.org/2000/svg"
   xmlns:sodipodi="http://sodipodi.sourceforge.net/DTD/sodipodi-0.dtd"
   xmlns:inkscape="http://www.inkscape.org/namespaces/inkscape"
   version="1.1"
   id="svg2"
   viewBox="0 0 335.5732 135.5625"
   height="38.258751mm"
   width="94.706215mm"
   inkscape:version="0.91 r13725"
   sodipodi:docname="drawing.svg">
  <sodipodi:namedview
     pagecolor="#ffffff"
     bordercolor="#666666"
     borderopacity="1"
     objecttolerance="10"
     gridtolerance="10"
     guidetolerance="10"
     inkscape:pageopacity="0"
     inkscape:pageshadow="2"
     inkscape:window-width="1920"
     inkscape:window-height="1018"
     id="namedview4157"
     showgrid="false"
     inkscape:zoom="1.1409259"
     inkscape:cx="360.44839"
     inkscape:cy="-102.3169"
     inkscape:window-x="-8"
     inkscape:window-y="-8"
     inkscape:window-maximized="1"
     inkscape:current-layer="layer1"
     fit-margin-top="0"
     fit-margin-left="0"
     fit-margin-right="0"
     fit-margin-bottom="0" />
  <defs
     id="defs4" />
  <metadata
     id="metadata7">
    <rdf:RDF>
      <cc:Work
         rdf:about="">
        <dc:format>image/svg+xml</dc:format>
        <dc:type
           rdf:resource="http://purl.org/dc/dcmitype/StillImage" />
        <dc:title></dc:title>
      </cc:Work>
    </rdf:RDF>
  </metadata>
  <g
     id="layer1"
     transform="translate(-0.929535,-0.916845)">
    <g
       id="g4159"
       transform="translate(-305.8919,-321.66857)">
      <g
         style="font-style:normal;font-weight:normal;font-size:40px;line-height:125%;font-family:sans-serif;letter-spacing:0px;word-spacing:0px;fill:#000000;fill-opacity:1;stroke:#ffffff;stroke-width:0;stroke-linecap:butt;stroke-linejoin:miter;stroke-miterlimit:4;stroke-dasharray:none;stroke-opacity:1"
         id="text4136">
        <path
           d="m 374.88394,430.77292 q 21.5625,0 35.25,-17.0625 l 18.75,19.3125 q -22.3125,25.125 -52.6875,25.125 -30.1875,0 -49.875,-19.125 -19.5,-19.125 -19.5,-48.1875 0,-29.25 19.875,-48.75 20.0625,-19.5 48.9375,-19.5 32.25,0 54,24.5625 l -18.1875,20.625 q -13.875,-17.25 -34.5,-17.25 -16.5,0 -28.3125,10.875 -11.625,10.6875 -11.625,29.0625 0,18.1875 11.0625,29.25 11.0625,11.0625 26.8125,11.0625 z"
           style="font-style:normal;font-variant:normal;font-weight:bold;font-stretch:normal;font-size:187.5px;font-family:Montserrat;-inkscape-font-specification:'Montserrat Bold';fill:#ffffff;fill-opacity:1;stroke:#ffffff;stroke-width:0;stroke-miterlimit:4;stroke-dasharray:none;stroke-opacity:1"
           id="path4195"
           inkscape:connector-curvature="0" />
      </g>
      <g
         style="font-style:normal;font-weight:normal;font-size:40px;line-height:125%;font-family:sans-serif;letter-spacing:0px;word-spacing:0px;fill:#ffff00;fill-opacity:1;stroke:#ffffff;stroke-width:0;stroke-linecap:butt;stroke-linejoin:miter;stroke-miterlimit:4;stroke-dasharray:none;stroke-opacity:1"
         id="text4144">
        <path
           d="m 472.6875,372.32917 0,7.81875 -19.575,0 0,8.1 17.60625,0 0,7.48125 -17.60625,0 0,8.15625 20.19375,0 0,7.7625 -28.96875,0 0,-39.31875 28.35,0 z"
           style="font-style:normal;font-variant:normal;font-weight:bold;font-stretch:normal;font-size:56.25px;font-family:Montserrat;-inkscape-font-specification:'Montserrat Bold';fill:#ffff00;fill-opacity:1;stroke:#ffffff;stroke-width:0;stroke-miterlimit:4;stroke-dasharray:none;stroke-opacity:1"
           id="path4198"
           inkscape:connector-curvature="0" />
        <path
           d="m 509.4917,372.32917 0,7.81875 -19.575,0 0,8.1 17.60625,0 0,7.48125 -17.60625,0 0,8.15625 20.19375,0 0,7.7625 -28.96875,0 0,-39.31875 28.35,0 z"
           style="font-style:normal;font-variant:normal;font-weight:bold;font-stretch:normal;font-size:56.25px;font-family:Montserrat;-inkscape-font-specification:'Montserrat Bold';fill:#ffff00;fill-opacity:1;stroke:#ffffff;stroke-width:0;stroke-miterlimit:4;stroke-dasharray:none;stroke-opacity:1"
           id="path4200"
           inkscape:connector-curvature="0" />
        <path
           d="m 517.9459,372.32917 8.775,0 0,39.31875 -8.775,0 0,-39.31875 z"
           style="font-style:normal;font-variant:normal;font-weight:bold;font-stretch:normal;font-size:56.25px;font-family:Montserrat;-inkscape-font-specification:'Montserrat Bold';fill:#ffff00;fill-opacity:1;stroke:#ffffff;stroke-width:0;stroke-miterlimit:4;stroke-dasharray:none;stroke-opacity:1"
           id="path4202"
           inkscape:connector-curvature="0" />
        <path
           d="m 561.94043,391.62292 8.83125,0 0,13.95 q -5.85,6.525 -16.2,6.525 -8.6625,0 -14.56875,-5.7375 -5.85,-5.7375 -5.85,-14.45625 0,-8.775 5.9625,-14.625 6.01875,-5.85 14.45625,-5.85 8.49375,0 14.7375,5.56875 l -4.55625,6.58125 q -2.64375,-2.30625 -4.89375,-3.15 -2.19375,-0.9 -4.78125,-0.9 -5.00625,0 -8.4375,3.43125 -3.43125,3.375 -3.43125,8.94375 0,5.56875 3.2625,8.94375 3.31875,3.31875 7.875,3.31875 4.55625,0 7.59375,-1.74375 l 0,-10.8 z"
           style="font-style:normal;font-variant:normal;font-weight:bold;font-stretch:normal;font-size:56.25px;font-family:Montserrat;-inkscape-font-specification:'Montserrat Bold';fill:#ffff00;fill-opacity:1;stroke:#ffffff;stroke-width:0;stroke-miterlimit:4;stroke-dasharray:none;stroke-opacity:1"
           id="path4204"
           inkscape:connector-curvature="0" />
        <path
           d="m 606.94043,372.32917 0,7.81875 -19.575,0 0,8.1 17.60625,0 0,7.48125 -17.60625,0 0,8.15625 20.19375,0 0,7.7625 -28.96875,0 0,-39.31875 28.35,0 z"
           style="font-style:normal;font-variant:normal;font-weight:bold;font-stretch:normal;font-size:56.25px;font-family:Montserrat;-inkscape-font-specification:'Montserrat Bold';fill:#ffff00;fill-opacity:1;stroke:#ffffff;stroke-width:0;stroke-miterlimit:4;stroke-dasharray:none;stroke-opacity:1"
           id="path4206"
           inkscape:connector-curvature="0" />
        <path
           d="m 642.39463,372.32917 0,7.70625 -18.225,0 0,8.49375 17.325,0 0,7.70625 -17.325,0 0,15.4125 -8.775,0 0,-39.31875 27,0 z"
           style="font-style:normal;font-variant:normal;font-weight:bold;font-stretch:normal;font-size:56.25px;font-family:Montserrat;-inkscape-font-specification:'Montserrat Bold';fill:#ffff00;fill-opacity:1;stroke:#ffffff;stroke-width:0;stroke-miterlimit:4;stroke-dasharray:none;stroke-opacity:1"
           id="path4208"
           inkscape:connector-curvature="0" />
      </g>
    </g>
  </g>
</svg>
